# xmcd
#
# Track frame offsets:
#	150
#	14240
#	33686
#	46183
#	62121
#	85814
#	99005
#	111691
#	125745
#	138958
#	165985
#	178837
#	195070
#	219484
#	237878
#	258241
#	282235
#
# Disc length: 3972 seconds
#
# Revision: 0
# Processed by: cddbd v1.5.2PL0 Copyright (c) Steve Scherf et al.
# Submitted via: EasyCDDAExtractor 16.0.6.1
#
DISCID=ee0f8211
DTITLE=Lady Sings The Blues
DYEAR=1900
DGENRE=Blues
TTITLE0=Norah Jones - Don't Know Why
TTITLE1=Randy Crawford - Rainy Night In Georgia
TTITLE2=Aretha Franklin - (You Make Me Feel Like) A Natural Woman
TTITLE3=Dusty Springfield - The Look Of Love
TTITLE4=Bonnie Raitt - I Can't Make You Love Me
TTITLE5=Dionne Warwick - Walk On By
TTITLE6=Dinah Washington - Mad About The Boy
TTITLE7=Ella Fitzgerald - Night And Day
TTITLE8=Billie Holiday - That Ole Devil Called Love
TTITLE9=Sarah Vaughan - Misty
TTITLE10=Julie London - Cry Me A River
TTITLE11=Dinah Shore, André Previn - My Funny Valentine
TTITLE12=Ella Fitzgerald - Summertime
TTITLE13=Nina Simone - I Loves You Porgy
TTITLE14=Janis Joplin - Me And Bobby McGee
TTITLE15=Dianne Reeves - In A Sentimental Mood
TTITLE16=Sarah Vaughan, Jimmie Jones and Orchestra - Stormy Weather
EXTD=
EXTT0=
EXTT1=
EXTT2=
EXTT3=
EXTT4=
EXTT5=
EXTT6=
EXTT7=
EXTT8=
EXTT9=
EXTT10=
EXTT11=
EXTT12=
EXTT13=
EXTT14=
EXTT15=
EXTT16=
PLAYORDER=
